<svg width="152" height="27" viewBox="0 0 152 27" fill="none" xmlns="http://www.w3.org/2000/svg">
<g clip-path="url(#clip0_124_83)">
<path d="M13.0287 18.7502L17.5344 21.4754C18.3595 21.9748 19.3693 21.2365 19.1521 20.3028L17.9578 15.1782L21.9424 11.7257C22.6698 11.0959 22.279 9.90166 21.3235 9.82566L16.0795 9.38052L14.0275 4.53823C13.6584 3.6588 12.399 3.6588 12.0298 4.53823L9.97783 9.36966L4.73384 9.81481C3.77841 9.8908 3.38755 11.0851 4.11498 11.7148L8.09955 15.1674L6.90526 20.2919C6.68812 21.2257 7.69783 21.9639 8.52298 21.4645L13.0287 18.7502Z" fill="#FFB800"/>
</g>
<g clip-path="url(#clip1_124_83)">
<path d="M44.5143 18.7502L49.02 21.4754C49.8451 21.9748 50.8549 21.2365 50.6377 20.3028L49.4434 15.1782L53.428 11.7257C54.1554 11.0959 53.7646 9.90166 52.8091 9.82566L47.5651 9.38052L45.5131 4.53823C45.144 3.6588 43.8846 3.6588 43.5154 4.53823L41.4634 9.36966L36.2194 9.81481C35.264 9.8908 34.8731 11.0851 35.6006 11.7148L39.5851 15.1674L38.3909 20.2919C38.1737 21.2257 39.1834 21.9639 40.0086 21.4645L44.5143 18.7502Z" fill="#FFB800"/>
</g>
<g clip-path="url(#clip2_124_83)">
<path d="M76.0001 18.7502L80.5058 21.4754C81.331 21.9748 82.3407 21.2365 82.1236 20.3028L80.9293 15.1782L84.9138 11.7257C85.6413 11.0959 85.2504 9.90166 84.295 9.82566L79.051 9.38052L76.999 4.53823C76.6298 3.6588 75.3704 3.6588 75.0013 4.53823L72.9493 9.36966L67.7053 9.81481C66.7498 9.8908 66.359 11.0851 67.0864 11.7148L71.071 15.1674L69.8767 20.2919C69.6596 21.2257 70.6693 21.9639 71.4944 21.4645L76.0001 18.7502Z" fill="#FFB800"/>
</g>
<g clip-path="url(#clip3_124_83)">
<path d="M107.486 18.7502L111.991 21.4754C112.817 21.9748 113.826 21.2365 113.609 20.3028L112.415 15.1782L116.399 11.7257C117.127 11.0959 116.736 9.90166 115.781 9.82566L110.537 9.38052L108.485 4.53823C108.115 3.6588 106.856 3.6588 106.487 4.53823L104.435 9.36966L99.1909 9.81481C98.2354 9.8908 97.8446 11.0851 98.572 11.7148L102.557 15.1674L101.362 20.2919C101.145 21.2257 102.155 21.9639 102.98 21.4645L107.486 18.7502Z" fill="#FFB800"/>
</g>
<g clip-path="url(#clip4_124_83)">
<path d="M138.972 18.7502L143.477 21.4754C144.302 21.9748 145.312 21.2365 145.095 20.3028L143.901 15.1782L147.885 11.7257C148.613 11.0959 148.222 9.90166 147.266 9.82566L142.022 9.38052L139.97 4.53823C139.601 3.6588 138.342 3.6588 137.973 4.53823L135.921 9.36966L130.677 9.81481C129.721 9.8908 129.33 11.0851 130.058 11.7148L134.042 15.1674L132.848 20.2919C132.631 21.2257 133.641 21.9639 134.466 21.4645L138.972 18.7502Z" fill="#FFB800"/>
</g>
<defs>
<clipPath id="clip0_124_83">
<rect width="26.0571" height="26.0571" fill="white"/>
</clipPath>
<clipPath id="clip1_124_83">
<rect width="26.0571" height="26.0571" fill="white" transform="translate(31.4856)"/>
</clipPath>
<clipPath id="clip2_124_83">
<rect width="26.0571" height="26.0571" fill="white" transform="translate(62.9714)"/>
</clipPath>
<clipPath id="clip3_124_83">
<rect width="26.0571" height="26.0571" fill="white" transform="translate(94.457)"/>
</clipPath>
<clipPath id="clip4_124_83">
<rect width="26.0571" height="26.0571" fill="white" transform="translate(125.943)"/>
</clipPath>
</defs>
</svg>
